<?xml version="1.0" encoding="utf-8"?>
<!-- Generator: Adobe Illustrator 27.1.1, SVG Export Plug-In . SVG Version: 6.00 Build 0)  -->
<svg version="1.1" id="Layer_1" xmlns="http://www.w3.org/2000/svg" xmlns:xlink="http://www.w3.org/1999/xlink" x="0px" y="0px"
	 viewBox="0 0 3000 3000" style="enable-background:new 0 0 3000 3000;" xml:space="preserve">
<style type="text/css">
	.st0{fill:#019CC3;}
	.st1{fill:url(#SVGID_1_);}
	.st2{fill:#065E99;}
	.st3{fill:#FFFFFF;}
	.st4{fill:url(#SVGID_00000022555016351376597100000001092967991575346816_);}
</style>
<g>
	<path class="st0" d="M1827.36,975.64c-51.01,0-92.08,41.07-92.08,92.08v884.56h-419.73c32.3,43.31,51.51,96.87,51.51,154.57
		c0,2.2-0.21,4.38-0.21,6.57h460.46h88.78h3.39c0-2.19-0.21-4.37-0.21-6.57c0-142.62,117.27-259.87,259.88-259.87
		c142.61,0,259.82,117.26,259.82,259.87c0,2.2-0.1,4.38-0.15,6.57h131.63c51.01,0,92.07-41.06,92.07-92.07v-32.9h11.98
		c16.39,0,29.59-13.19,29.59-29.59v-101.94c0-16.39-13.2-29.59-29.59-29.59h-11.98v-240.04l-575.45-611.64H1827.36z
		 M1902.12,1085.46h169.49l375.47,399.09v30.54h-605.03v-369.54C1842.04,1112.26,1868.84,1085.46,1902.12,1085.46z M1852.96,1556.23
		h123.22v49.22h-123.22V1556.23z M1107.2,1884.19c-122.24,0-222.62,100.42-222.62,222.66c0,122.24,100.38,222.62,222.62,222.62
		c122.24,0,222.66-100.38,222.66-222.62C1329.86,1984.61,1229.43,1884.19,1107.2,1884.19z M2179.25,1884.19
		c-122.24,0-222.67,100.42-222.67,222.66c0,122.24,100.44,222.62,222.67,222.62c122.24,0,222.62-100.38,222.62-222.62
		C2401.87,1984.61,2301.48,1884.19,2179.25,1884.19z M330.58,1952.28c-16.39,0-29.59,13.2-29.59,29.6v101.94
		c0,16.39,13.2,29.6,29.59,29.6h516.96c0-2.19-0.21-4.37-0.21-6.57c0-57.71,19.2-111.25,51.51-154.57H330.58z M1107.2,2007.22
		c55.74,0,99.63,43.89,99.63,99.63c0,55.74-43.89,99.57-99.63,99.57c-55.74,0-99.59-43.84-99.59-99.57
		C1007.61,2051.11,1051.45,2007.22,1107.2,2007.22z M2179.25,2007.22c55.74,0,99.58,43.89,99.58,99.63
		c0,55.74-43.83,99.57-99.58,99.57c-55.74,0-99.63-43.84-99.63-99.57C2079.62,2051.11,2123.5,2007.22,2179.25,2007.22z"/>
	<g>
		<linearGradient id="SVGID_1_" gradientUnits="userSpaceOnUse" x1="1356.7036" y1="1762.2631" x2="1367.8832" y2="884.4783">
			<stop  offset="0" style="stop-color:#065E99"/>
			<stop  offset="1" style="stop-color:#00ADEF"/>
		</linearGradient>
		<path class="st1" d="M1322.39,874.11c-63.54,77.02-142.39,146.14-250.59,169.87v32.77c16.24,3.1,28,17.3,28.01,33.83v32.32
			c-0.01,16.54-11.77,30.73-28.01,33.83v32.25c16.24,3.1,28,17.3,28.01,33.83v354.04v15.13v18.69
			c-0.01,16.54-11.77,30.73-28.01,33.83v32.24c16.24,3.1,28,17.3,28.01,33.83v25.51c-0.01,16.53-11.76,30.72-28,33.82
			c0.33,20.14,10.42,31.54,34.34,31.62h97.98h99.28h57.7h57.7h99.28h97.98c23.92-0.08,34.01-11.47,34.34-31.61
			c-16.24-3.1-27.99-17.3-28-33.83v-25.51c0.01-16.54,11.77-30.73,28.01-33.83v-32.24c-16.24-3.1-28-17.3-28.01-33.83v-18.69v-15.13
			V1242.8c0.01-16.54,11.77-30.73,28.01-33.83v-32.25c-16.24-3.1-28-17.3-28.01-33.83v-32.32c0.01-16.54,11.77-30.73,28.01-33.83
			v-32.77c-108.21-23.73-187.05-92.85-250.59-169.87l-38.37,0.38c-0.23,0-0.46,0-0.69,0L1322.39,874.11z"/>
		<path class="st2" d="M1304.13,670.53c-18.53,0-33.45,14.91-33.45,33.44v101.4h90.43h90.43v-101.4c0-18.53-14.92-33.44-33.45-33.44
			h-56.98H1304.13z"/>
		<path class="st2" d="M1415.33,822.16c-0.76,0.02-1.52,0.09-2.27,0.22l1.27-0.21l-53.22,0.54l-53.22-0.54l1.27,0.21
			c-6.21-1-12.47,1.44-16.36,6.38l0.02-0.09c-62.34,78.47-134.77,144.04-233.97,165.15l1.98-0.3
			c-22.83,2.15-40.81,21.65-40.81,44.89v44.37c0,18.65,11.67,34.83,28.01,41.64v4.57c-16.34,6.81-28.01,22.99-28.01,41.64V1215
			c0,18.65,11.67,34.83,28.01,41.64v340.17v15.13v4.81c-16.34,6.81-28.01,22.99-28.01,41.64v44.36c0,17.78,10.66,33.21,25.81,40.53
			c-15.02,7.26-25.59,22.5-25.76,40.09c-2.16,48.17,34.6,89.73,85.93,89.89c0.02,0,0.04,0,0.06,0h98.09h99.28h57.7h57.7h99.28h98.09
			c0.02,0,0.04,0,0.06,0c51.33-0.16,88.09-41.73,85.93-89.89c-0.17-17.59-10.74-32.83-25.76-40.09
			c15.15-7.32,25.81-22.75,25.81-40.53v-44.36c0-18.65-11.67-34.83-28.01-41.64v-4.81v-15.13v-340.17
			c16.34-6.81,28.01-22.99,28.01-41.64v-44.37c0-18.65-11.67-34.83-28.01-41.64v-4.57c16.34-6.81,28.01-22.99,28.01-41.64v-44.37
			c0-23.25-17.98-42.74-40.81-44.89l1.98,0.3c-99.2-21.1-171.62-86.68-233.97-165.15l0.02,0.09
			C1426.03,824.46,1420.81,822.01,1415.33,822.16z M1314.44,856.9l46.5,0.47c0.12,0,0.23,0,0.35,0l46.5-0.47
			c63.65,78.62,141.28,148.07,248.39,170.86c0.65,0.14,1.31,0.24,1.98,0.3c5.42,0.51,9.4,4.66,9.4,10.38v44.37
			c0,6.08-4.36,10.43-10.44,10.43h-0.24c-9.57,0-17.33,7.76-17.33,17.33v32.32c0,9.57,7.76,17.33,17.33,17.33h0.24
			c6.08,0,10.44,4.36,10.44,10.44v44.37c0,6.08-4.36,10.44-10.44,10.44h-0.24c-9.57,0-17.33,7.76-17.33,17.33v354.04v15.13v18.69
			c0,9.57,7.76,17.33,17.33,17.33h0.24c6.08,0,10.44,4.36,10.44,10.44v44.36c0,6.08-4.36,10.44-10.44,10.44h-0.24
			c-9.57,0-17.33,7.76-17.33,17.33v25.51c0,9.57,7.76,17.33,17.33,17.33h0.24c6.08,0,10.44,4.36,10.44,10.44
			c0,0.29,0.01,0.57,0.03,0.86c1.56,31.34-17.27,53.83-51.45,53.94h-98.03h-99.28h-57.7h-57.7h-99.28h-98.03
			c-34.19-0.11-53.01-22.61-51.45-53.94c0.02-0.29,0.02-0.57,0.03-0.86c0-6.08,4.36-10.44,10.44-10.44h0.24
			c9.57,0,17.33-7.76,17.33-17.33v-25.51c0-9.57-7.76-17.33-17.33-17.33h-0.24c-6.08,0-10.44-4.36-10.44-10.44v-44.36
			c0-6.08,4.36-10.44,10.44-10.44h0.24c9.57,0,17.33-7.76,17.33-17.33v-18.69v-15.13V1242.8c0-9.57-7.76-17.33-17.33-17.33h-0.24
			c-6.08,0-10.44-4.36-10.44-10.44v-44.37c0-6.08,4.36-10.44,10.44-10.44h0.24c9.57,0,17.33-7.76,17.33-17.33v-32.32
			c0-9.57-7.76-17.33-17.33-17.33h-0.24c-6.08,0-10.44-4.36-10.44-10.43v-44.37c0-5.72,3.99-9.87,9.4-10.38
			c0.67-0.06,1.33-0.16,1.98-0.3C1173.17,1004.97,1250.8,935.51,1314.44,856.9z"/>
		<path class="st3" d="M1267.9,1490.98c0,8.74-3.47,17.11-9.65,23.29c-6.18,6.18-14.56,9.65-23.29,9.65
			c-8.74,0-17.11-3.47-23.29-9.65c-6.18-6.18-9.65-14.56-9.65-23.29c0-18.19,14.75-32.94,32.94-32.94S1267.9,1472.79,1267.9,1490.98
			z"/>
		<path class="st3" d="M1316.22,1529.46c0,4.61-1.83,9.03-5.09,12.29c-3.26,3.26-7.68,5.09-12.29,5.09c-4.61,0-9.03-1.83-12.29-5.09
			c-3.26-3.26-5.09-7.68-5.09-12.29c0-9.6,7.78-17.38,17.38-17.38C1308.43,1512.08,1316.22,1519.87,1316.22,1529.46z"/>
		<path class="st3" d="M1262.99,1571.23c0,6.43-5.22,11.65-11.65,11.65s-11.65-5.22-11.65-11.65c0-6.43,5.22-11.65,11.65-11.65
			S1262.99,1564.79,1262.99,1571.23z"/>
	</g>
	<g>
		
			<linearGradient id="SVGID_00000134239069763486620260000011073543937074183303_" gradientUnits="userSpaceOnUse" x1="632.6451" y1="1762.2631" x2="643.8246" y2="884.4783">
			<stop  offset="0" style="stop-color:#065E99"/>
			<stop  offset="1" style="stop-color:#00ADEF"/>
		</linearGradient>
		<path style="fill:url(#SVGID_00000134239069763486620260000011073543937074183303_);" d="M598.33,874.11
			c-63.54,77.02-142.39,146.14-250.59,169.87v32.77c16.24,3.1,28,17.3,28.01,33.83v32.32c-0.01,16.54-11.77,30.73-28.01,33.83v32.25
			c16.24,3.1,28,17.3,28.01,33.83v354.04v15.13v18.69c-0.01,16.54-11.77,30.73-28.01,33.83v32.24c16.24,3.1,28,17.3,28.01,33.83
			v25.51c-0.01,16.53-11.76,30.72-28,33.82c0.33,20.14,10.42,31.54,34.34,31.62h97.98h99.28h57.7h57.7h99.28H892
			c23.92-0.08,34.01-11.47,34.34-31.61c-16.24-3.1-27.99-17.3-28-33.83v-25.51c0.01-16.54,11.77-30.73,28.01-33.83v-32.24
			c-16.24-3.1-28-17.3-28.01-33.83v-18.69v-15.13V1242.8c0.01-16.54,11.77-30.73,28.01-33.83v-32.25c-16.24-3.1-28-17.3-28.01-33.83
			v-32.32c0.01-16.54,11.77-30.73,28.01-33.83v-32.77c-108.21-23.73-187.05-92.85-250.59-169.87l-38.37,0.38c-0.23,0-0.46,0-0.69,0
			L598.33,874.11z"/>
		<path class="st2" d="M580.07,670.53c-18.53,0-33.45,14.91-33.45,33.44v101.4h90.43h90.43v-101.4c0-18.53-14.92-33.44-33.45-33.44
			h-56.98H580.07z"/>
		<path class="st2" d="M691.27,822.16c-0.76,0.02-1.52,0.09-2.27,0.22l1.27-0.21l-53.22,0.54l-53.22-0.54l1.27,0.21
			c-6.21-1-12.47,1.44-16.36,6.38l0.02-0.09c-62.34,78.47-134.77,144.04-233.97,165.15l1.98-0.3
			c-22.83,2.15-40.81,21.65-40.81,44.89v44.37c0,18.65,11.67,34.83,28.01,41.64v4.57c-16.34,6.81-28.01,22.99-28.01,41.64V1215
			c0,18.65,11.67,34.83,28.01,41.64v340.17v15.13v4.81c-16.34,6.81-28.01,22.99-28.01,41.64v44.36c0,17.78,10.66,33.21,25.81,40.53
			c-15.02,7.26-25.59,22.5-25.76,40.09c-2.16,48.17,34.6,89.73,85.93,89.89c0.02,0,0.04,0,0.06,0h98.09h99.28h57.7h57.7h99.28h98.09
			c0.02,0,0.04,0,0.06,0c51.33-0.16,88.09-41.73,85.93-89.89c-0.17-17.59-10.74-32.83-25.76-40.09
			c15.15-7.32,25.81-22.75,25.81-40.53v-44.36c0-18.65-11.67-34.83-28.01-41.64v-4.81v-15.13v-340.17
			c16.34-6.81,28.01-22.99,28.01-41.64v-44.37c0-18.65-11.67-34.83-28.01-41.64v-4.57c16.34-6.81,28.01-22.99,28.01-41.64v-44.37
			c0-23.25-17.98-42.74-40.81-44.89l1.98,0.3c-99.2-21.1-171.62-86.68-233.97-165.15l0.02,0.09
			C701.98,824.46,696.75,822.01,691.27,822.16z M590.38,856.9l46.5,0.47c0.12,0,0.23,0,0.35,0l46.5-0.47
			c63.65,78.62,141.28,148.07,248.39,170.86c0.65,0.14,1.31,0.24,1.98,0.3c5.42,0.51,9.4,4.66,9.4,10.38v44.37
			c0,6.08-4.36,10.43-10.44,10.43h-0.24c-9.57,0-17.33,7.76-17.33,17.33v32.32c0,9.57,7.76,17.33,17.33,17.33h0.24
			c6.08,0,10.44,4.36,10.44,10.44v44.37c0,6.08-4.36,10.44-10.44,10.44h-0.24c-9.57,0-17.33,7.76-17.33,17.33v354.04v15.13v18.69
			c0,9.57,7.76,17.33,17.33,17.33h0.24c6.08,0,10.44,4.36,10.44,10.44v44.36c0,6.08-4.36,10.44-10.44,10.44h-0.24
			c-9.57,0-17.33,7.76-17.33,17.33v25.51c0,9.57,7.76,17.33,17.33,17.33h0.24c6.08,0,10.44,4.36,10.44,10.44
			c0,0.29,0.01,0.57,0.03,0.86c1.56,31.34-17.27,53.83-51.45,53.94h-98.03h-99.28h-57.7h-57.7h-99.28h-98.03
			c-34.19-0.11-53.01-22.61-51.45-53.94c0.02-0.29,0.02-0.57,0.03-0.86c0-6.08,4.36-10.44,10.44-10.44h0.24
			c9.57,0,17.33-7.76,17.33-17.33v-25.51c0-9.57-7.76-17.33-17.33-17.33h-0.24c-6.08,0-10.44-4.36-10.44-10.44v-44.36
			c0-6.08,4.36-10.44,10.44-10.44h0.24c9.57,0,17.33-7.76,17.33-17.33v-18.69v-15.13V1242.8c0-9.57-7.76-17.33-17.33-17.33h-0.24
			c-6.08,0-10.44-4.36-10.44-10.44v-44.37c0-6.08,4.36-10.44,10.44-10.44h0.24c9.57,0,17.33-7.76,17.33-17.33v-32.32
			c0-9.57-7.76-17.33-17.33-17.33h-0.24c-6.08,0-10.44-4.36-10.44-10.43v-44.37c0-5.72,3.99-9.87,9.4-10.38
			c0.67-0.06,1.33-0.16,1.98-0.3C449.11,1004.97,526.74,935.51,590.38,856.9z"/>
		<path class="st3" d="M543.85,1490.98c0,8.74-3.47,17.11-9.65,23.29c-6.18,6.18-14.56,9.65-23.29,9.65
			c-8.74,0-17.11-3.47-23.29-9.65c-6.18-6.18-9.65-14.56-9.65-23.29c0-18.19,14.75-32.94,32.94-32.94
			C529.1,1458.04,543.85,1472.79,543.85,1490.98z"/>
		<path class="st3" d="M592.16,1529.46c0,4.61-1.83,9.03-5.09,12.29s-7.68,5.09-12.29,5.09c-4.61,0-9.03-1.83-12.29-5.09
			s-5.09-7.68-5.09-12.29c0-9.6,7.78-17.38,17.38-17.38S592.16,1519.87,592.16,1529.46z"/>
		<path class="st3" d="M538.93,1571.23c0,6.43-5.22,11.65-11.65,11.65s-11.65-5.22-11.65-11.65c0-6.43,5.22-11.65,11.65-11.65
			S538.93,1564.79,538.93,1571.23z"/>
	</g>
</g>
</svg>
