<?xml version="1.0" encoding="utf-8"?>
<!-- Generator: Adobe Illustrator 27.1.1, SVG Export Plug-In . SVG Version: 6.00 Build 0)  -->
<svg version="1.1" id="Layer_1" xmlns="http://www.w3.org/2000/svg" xmlns:xlink="http://www.w3.org/1999/xlink" x="0px" y="0px"
	 viewBox="0 0 3000 3000" style="enable-background:new 0 0 3000 3000;" xml:space="preserve">
<style type="text/css">
	.st0{fill:#019CC3;}
	.st1{fill:url(#SVGID_1_);}
	.st2{fill:#065E99;}
	.st3{fill:#FFFFFF;}
	.st4{fill:url(#SVGID_00000051376304577852443430000017293923624316034184_);}
	.st5{fill:#039DC3;}
	.st6{fill:#0666A1;}
</style>
<g>
	<g>
		<path class="st0" d="M1789.68,754.66c-45.14,0-81.48,36.34-81.48,81.48v782.73h-371.41c28.59,38.32,45.58,85.71,45.58,136.77
			c0,1.95-0.19,3.87-0.19,5.81h407.45h78.56h3c0-1.94-0.19-3.86-0.19-5.81c0-126.2,103.77-229.95,229.96-229.95
			c126.2,0,229.91,103.76,229.91,229.95c0,1.95-0.09,3.87-0.13,5.81h116.48c45.14,0,81.47-36.33,81.47-81.47v-29.11h10.6
			c14.51,0,26.18-11.67,26.18-26.18v-90.21c0-14.51-11.68-26.18-26.18-26.18h-10.6v-212.4L2019.5,754.66H1789.68z M1855.83,851.83
			h149.98l332.24,353.14V1232h-535.38V905C1802.67,875.55,1826.38,851.83,1855.83,851.83z M1812.33,1268.41h109.03v43.55h-109.03
			V1268.41z M1152.41,1558.62c-108.16,0-196.99,88.86-196.99,197.03c0,108.16,88.83,196.99,196.99,196.99
			c108.17,0,197.03-88.83,197.03-196.99C1349.45,1647.48,1260.58,1558.62,1152.41,1558.62z M2101.05,1558.62
			c-108.16,0-197.04,88.86-197.04,197.03c0,108.16,88.88,196.99,197.04,196.99c108.16,0,196.99-88.83,196.99-196.99
			C2298.04,1647.48,2209.22,1558.62,2101.05,1558.62z M465.2,1618.87c-14.51,0-26.18,11.68-26.18,26.19v90.2
			c0,14.51,11.68,26.19,26.18,26.19h457.45c0-1.94-0.19-3.86-0.19-5.81c0-51.06,16.99-98.45,45.58-136.77H465.2z M1152.41,1667.49
			c49.33,0,88.16,38.84,88.16,88.16c0,49.32-38.84,88.11-88.16,88.11c-49.32,0-88.12-38.79-88.12-88.11
			C1064.29,1706.32,1103.09,1667.49,1152.41,1667.49z M2101.05,1667.49c49.33,0,88.11,38.84,88.11,88.16
			c0,49.32-38.79,88.11-88.11,88.11c-49.32,0-88.16-38.79-88.16-88.11C2012.89,1706.32,2051.73,1667.49,2101.05,1667.49z"/>
		<g>
			<linearGradient id="SVGID_1_" gradientUnits="userSpaceOnUse" x1="1373.1996" y1="1450.7284" x2="1383.0922" y2="673.9925">
				<stop  offset="0" style="stop-color:#065E99"/>
				<stop  offset="1" style="stop-color:#00ADEF"/>
			</linearGradient>
			<path class="st1" d="M1342.84,664.81c-56.23,68.15-126,129.32-221.75,150.31v28.99c14.37,2.74,24.78,15.3,24.79,29.94v28.6
				c-0.01,14.63-10.41,27.19-24.79,29.93v28.53c14.37,2.74,24.78,15.3,24.79,29.94v313.29v13.39v16.54
				c-0.01,14.63-10.41,27.19-24.79,29.93v28.53c14.37,2.74,24.78,15.3,24.79,29.94v22.57c-0.01,14.63-10.41,27.19-24.78,29.93
				c0.29,17.82,9.22,27.91,30.39,27.98h86.7h87.85h51.05h51.05H1516h86.7c21.17-0.07,30.09-10.15,30.39-27.97
				c-14.37-2.74-24.77-15.31-24.78-29.94v-22.57c0.01-14.63,10.41-27.19,24.79-29.93v-28.53c-14.37-2.74-24.78-15.3-24.79-29.94
				v-16.54v-13.39V991.06c0.01-14.63,10.41-27.19,24.79-29.93v-28.53c-14.37-2.74-24.78-15.3-24.79-29.94v-28.6
				c0.01-14.63,10.41-27.19,24.79-29.93v-29c-95.75-20.99-165.52-82.16-221.75-150.31l-33.95,0.34c-0.2,0-0.41,0-0.61,0
				L1342.84,664.81z"/>
			<path class="st2" d="M1326.68,484.67c-16.4,0-29.6,13.19-29.6,29.59v89.72h80.02h80.02v-89.72c0-16.4-13.2-29.59-29.6-29.59
				h-50.42H1326.68z"/>
			<path class="st2" d="M1425.07,618.85c-0.67,0.02-1.34,0.08-2.01,0.19l1.12-0.18l-47.1,0.48l-47.1-0.48l1.12,0.18
				c-5.49-0.88-11.03,1.28-14.48,5.65l0.02-0.08c-55.17,69.43-119.26,127.46-207.03,146.14l1.75-0.27
				c-20.2,1.91-36.11,19.15-36.11,39.73v39.26c0,16.5,10.32,30.82,24.79,36.84v4.05c-14.46,6.03-24.79,20.34-24.79,36.85v39.26
				c0,16.5,10.32,30.82,24.79,36.85v301.01v13.39v4.26c-14.46,6.03-24.79,20.34-24.79,36.85v39.25c0,15.73,9.43,29.39,22.84,35.86
				c-13.29,6.42-22.64,19.91-22.8,35.48c-1.91,42.62,30.62,79.4,76.04,79.54c0.02,0,0.04,0,0.05,0h86.8h87.85h51.05h51.05h87.85
				h86.8c0.02,0,0.04,0,0.05,0c45.42-0.15,77.95-36.92,76.04-79.54c-0.15-15.57-9.51-29.05-22.8-35.48
				c13.4-6.48,22.84-20.13,22.84-35.86v-39.25c0-16.5-10.32-30.82-24.79-36.85v-4.26v-13.39v-301.01
				c14.46-6.03,24.79-20.34,24.79-36.85V927.2c0-16.5-10.32-30.82-24.79-36.85v-4.05c14.46-6.03,24.79-20.34,24.79-36.84V810.2
				c0-20.57-15.91-37.82-36.11-39.73l1.75,0.27c-87.78-18.67-151.87-76.7-207.03-146.14l0.02,0.08
				C1434.55,620.88,1429.92,618.72,1425.07,618.85z M1335.8,649.59l41.14,0.41c0.1,0,0.21,0,0.31,0l41.14-0.41
				c56.32,69.57,125.01,131.03,219.79,151.19c0.58,0.12,1.16,0.21,1.75,0.27c4.79,0.45,8.32,4.13,8.32,9.19v39.26
				c0,5.38-3.85,9.23-9.24,9.23h-0.21c-8.47,0-15.33,6.87-15.34,15.34v28.6c0,8.47,6.87,15.33,15.34,15.33h0.21
				c5.38,0,9.24,3.85,9.24,9.24v39.26c0,5.38-3.86,9.24-9.24,9.24h-0.21c-8.47,0-15.33,6.87-15.34,15.34v313.29v13.39v16.54
				c0,8.47,6.87,15.33,15.34,15.33h0.21c5.38,0,9.24,3.86,9.24,9.24v39.25c0,5.38-3.86,9.24-9.24,9.24h-0.21
				c-8.47,0-15.33,6.87-15.34,15.34v22.57c0,8.47,6.87,15.33,15.34,15.33h0.21c5.38,0,9.24,3.86,9.24,9.24
				c0,0.25,0.01,0.51,0.02,0.76c1.38,27.73-15.28,47.64-45.53,47.73h-86.74h-87.85h-51.05h-51.05h-87.85h-86.74
				c-30.25-0.1-46.91-20-45.53-47.73c0.01-0.25,0.02-0.51,0.02-0.76c0-5.38,3.86-9.24,9.24-9.24h0.21c8.47,0,15.33-6.87,15.34-15.33
				v-22.57c0-8.47-6.87-15.33-15.34-15.34h-0.21c-5.38,0-9.24-3.86-9.24-9.24v-39.25c0-5.38,3.86-9.24,9.24-9.24h0.21
				c8.47,0,15.33-6.87,15.34-15.33v-16.54v-13.39V991.07c0-8.47-6.87-15.33-15.34-15.34h-0.21c-5.38,0-9.24-3.86-9.24-9.24v-39.26
				c0-5.38,3.86-9.24,9.24-9.24h0.21c8.47,0,15.33-6.87,15.34-15.33v-28.6c0-8.47-6.87-15.33-15.34-15.34h-0.21
				c-5.38,0-9.24-3.85-9.24-9.23v-39.26c0-5.06,3.53-8.74,8.32-9.19c0.59-0.06,1.17-0.15,1.75-0.27
				C1210.79,780.61,1279.49,719.15,1335.8,649.59z"/>
			<path class="st3" d="M1294.62,1210.67c0,7.73-3.07,15.14-8.54,20.61c-5.47,5.47-12.88,8.54-20.61,8.54s-15.14-3.07-20.61-8.54
				c-5.47-5.47-8.54-12.88-8.54-20.61c0-16.1,13.05-29.15,29.15-29.15C1281.57,1181.53,1294.62,1194.58,1294.62,1210.67z"/>
			<path class="st3" d="M1337.37,1244.73c0,4.08-1.62,7.99-4.5,10.88s-6.8,4.5-10.88,4.5s-7.99-1.62-10.88-4.5s-4.5-6.8-4.5-10.88
				c0-8.49,6.89-15.38,15.38-15.38C1330.49,1229.35,1337.37,1236.24,1337.37,1244.73z"/>
			<path class="st3" d="M1290.27,1281.68c0,5.69-4.61,10.31-10.31,10.31s-10.31-4.61-10.31-10.31c0-5.69,4.61-10.31,10.31-10.31
				S1290.27,1275.99,1290.27,1281.68z"/>
		</g>
		<g>
			
				<linearGradient id="SVGID_00000011742885168139039900000006209790382283188644_" gradientUnits="userSpaceOnUse" x1="732.4932" y1="1450.7284" x2="742.3858" y2="673.9925">
				<stop  offset="0" style="stop-color:#065E99"/>
				<stop  offset="1" style="stop-color:#00ADEF"/>
			</linearGradient>
			<path style="fill:url(#SVGID_00000011742885168139039900000006209790382283188644_);" d="M702.13,664.81
				c-56.23,68.15-126,129.32-221.75,150.31v28.99c14.37,2.74,24.78,15.3,24.79,29.94v28.6c-0.01,14.63-10.41,27.19-24.79,29.93
				v28.53c14.37,2.74,24.78,15.3,24.79,29.94v313.29v13.39v16.54c-0.01,14.63-10.41,27.19-24.79,29.93v28.53
				c14.37,2.74,24.78,15.3,24.79,29.94v22.57c-0.01,14.63-10.41,27.19-24.78,29.93c0.29,17.82,9.22,27.91,30.39,27.98h86.7h87.85
				h51.05h51.05h87.85h86.7c21.17-0.07,30.09-10.15,30.39-27.97c-14.37-2.74-24.77-15.31-24.78-29.94v-22.57
				c0.01-14.63,10.41-27.19,24.79-29.93v-28.53c-14.37-2.74-24.78-15.3-24.79-29.94v-16.54v-13.39V991.06
				c0.01-14.63,10.41-27.19,24.79-29.93v-28.53c-14.37-2.74-24.78-15.3-24.79-29.94v-28.6c0.01-14.63,10.41-27.19,24.79-29.93v-29
				c-95.75-20.99-165.52-82.16-221.75-150.31l-33.95,0.34c-0.2,0-0.41,0-0.61,0L702.13,664.81z"/>
			<path class="st2" d="M685.97,484.67c-16.4,0-29.6,13.19-29.6,29.59v89.72h80.02h80.02v-89.72c0-16.4-13.2-29.59-29.6-29.59
				h-50.42H685.97z"/>
			<path class="st2" d="M784.37,618.85c-0.67,0.02-1.34,0.08-2.01,0.19l1.12-0.18l-47.1,0.48l-47.1-0.48l1.12,0.18
				c-5.49-0.88-11.03,1.28-14.48,5.65l0.02-0.08c-55.17,69.43-119.26,127.46-207.03,146.14l1.75-0.27
				c-20.2,1.91-36.11,19.15-36.11,39.73v39.26c0,16.5,10.32,30.82,24.79,36.84v4.05c-14.46,6.03-24.79,20.34-24.79,36.85v39.26
				c0,16.5,10.32,30.82,24.79,36.85v301.01v13.39v4.26c-14.46,6.03-24.79,20.34-24.79,36.85v39.25c0,15.73,9.43,29.39,22.84,35.86
				c-13.29,6.42-22.64,19.91-22.8,35.48c-1.91,42.62,30.62,79.4,76.04,79.54c0.02,0,0.04,0,0.05,0h86.8h87.85h51.05h51.05h87.85
				h86.8c0.02,0,0.04,0,0.05,0c45.42-0.15,77.95-36.92,76.04-79.54c-0.15-15.57-9.51-29.05-22.8-35.48
				c13.4-6.48,22.84-20.13,22.84-35.86v-39.25c0-16.5-10.32-30.82-24.79-36.85v-4.26v-13.39v-301.01
				c14.46-6.03,24.79-20.34,24.79-36.85V927.2c0-16.5-10.32-30.82-24.79-36.85v-4.05c14.46-6.03,24.79-20.34,24.79-36.84V810.2
				c0-20.57-15.91-37.82-36.11-39.73l1.75,0.27c-87.78-18.67-151.87-76.7-207.03-146.14l0.02,0.08
				C793.84,620.88,789.22,618.72,784.37,618.85z M695.09,649.59l41.14,0.41c0.1,0,0.21,0,0.31,0l41.14-0.41
				c56.32,69.57,125.01,131.03,219.79,151.19c0.58,0.12,1.16,0.21,1.75,0.27c4.79,0.45,8.32,4.13,8.32,9.19v39.26
				c0,5.38-3.85,9.23-9.24,9.23h-0.21c-8.47,0-15.33,6.87-15.34,15.34v28.6c0,8.47,6.87,15.33,15.34,15.33h0.21
				c5.38,0,9.24,3.85,9.24,9.24v39.26c0,5.38-3.86,9.24-9.24,9.24h-0.21c-8.47,0-15.33,6.87-15.34,15.34v313.29v13.39v16.54
				c0,8.47,6.87,15.33,15.34,15.33h0.21c5.38,0,9.24,3.86,9.24,9.24v39.25c0,5.38-3.86,9.24-9.24,9.24h-0.21
				c-8.47,0-15.33,6.87-15.34,15.34v22.57c0,8.47,6.87,15.33,15.34,15.33h0.21c5.38,0,9.24,3.86,9.24,9.24
				c0,0.25,0.01,0.51,0.02,0.76c1.38,27.73-15.28,47.64-45.53,47.73H875.3h-87.85h-51.05h-51.05h-87.85h-86.74
				c-30.25-0.1-46.91-20-45.53-47.73c0.01-0.25,0.02-0.51,0.02-0.76c0-5.38,3.86-9.24,9.24-9.24h0.21c8.47,0,15.33-6.87,15.34-15.33
				v-22.57c0-8.47-6.87-15.33-15.34-15.34h-0.21c-5.38,0-9.24-3.86-9.24-9.24v-39.25c0-5.38,3.86-9.24,9.24-9.24h0.21
				c8.47,0,15.33-6.87,15.34-15.33v-16.54v-13.39V991.07c0-8.47-6.87-15.33-15.34-15.34h-0.21c-5.38,0-9.24-3.86-9.24-9.24v-39.26
				c0-5.38,3.86-9.24,9.24-9.24h0.21c8.47,0,15.33-6.87,15.34-15.33v-28.6c0-8.47-6.87-15.33-15.34-15.34h-0.21
				c-5.38,0-9.24-3.85-9.24-9.23v-39.26c0-5.06,3.53-8.74,8.32-9.19c0.59-0.06,1.17-0.15,1.75-0.27
				C570.09,780.61,638.78,719.15,695.09,649.59z"/>
			<path class="st3" d="M653.92,1210.67c0,7.73-3.07,15.14-8.54,20.61c-5.47,5.47-12.88,8.54-20.61,8.54
				c-7.73,0-15.14-3.07-20.61-8.54c-5.47-5.47-8.54-12.88-8.54-20.61c0-16.1,13.05-29.15,29.15-29.15S653.92,1194.58,653.92,1210.67
				z"/>
			<path class="st3" d="M696.67,1244.73c0,4.08-1.62,7.99-4.5,10.88c-2.88,2.88-6.8,4.5-10.88,4.5c-4.08,0-7.99-1.62-10.88-4.5
				c-2.88-2.88-4.5-6.8-4.5-10.88c0-8.49,6.89-15.38,15.38-15.38S696.67,1236.24,696.67,1244.73z"/>
			<path class="st3" d="M649.57,1281.68c0,5.69-4.61,10.31-10.31,10.31c-5.69,0-10.31-4.61-10.31-10.31
				c0-5.69,4.61-10.31,10.31-10.31C644.95,1271.38,649.57,1275.99,649.57,1281.68z"/>
		</g>
	</g>
	<g>
		<path class="st5" d="M982.6,2037.35c2.22,0,3.93,0,5.65,0c22.03,0,44.06,0,66.08,0c1.04,0,2.08,0.04,3.12,0
			c1.84-0.08,2.62,0.67,3.12,2.58c2.56,9.95,5.39,19.82,8.04,29.74c6.16,23.02,12.26,46.05,18.41,69.07
			c5.7,21.36,11.45,42.7,17.13,64.07c0.26,0.99,0.37,1.98,0.94,2.91c0.68,1.09,1.6,1.23,2.66,1.12c0.98-0.1,1.62-0.77,1.69-1.69
			c0.48-6.06,3.01-11.62,4.48-17.42c1.63-6.45,3.81-12.8,5.68-19.22c2.92-10.07,5.76-20.16,8.7-30.23c2.05-7.03,4.3-14,6.32-21.03
			c3.36-11.69,6.56-23.43,9.94-35.11c3.7-12.8,7.53-25.56,11.29-38.34c0.19-0.64,0.39-1.29,0.54-1.94c0.95-4.19,1.3-4.56,5.33-4.57
			c18.91-0.03,37.81,0,56.72-0.03c2.41,0,3.77,0.21,4.63,3.29c9.56,34.26,19.38,68.44,29.2,102.63
			c5.73,19.95,11.58,39.87,17.38,59.81c0.19,0.66,0.21,1.39,0.52,1.98c0.51,0.98,1.37,1.51,2.54,1.46c1.13-0.05,1.14-1,1.59-1.7
			c1.8-2.78,1.88-6.1,2.72-9.12c4.51-16.17,8.66-32.45,12.77-48.73c4.35-17.26,9.05-34.44,13.58-51.65
			c3.59-13.65,6.88-27.41,11.15-40.9c1.39-4.4,2.42-9.04,3.2-13.64c0.38-2.25,1.53-2.87,3.36-3.12c0.68-0.09,1.39-0.03,2.08-0.03
			c23.59,0,47.18,0,70.77,0.01c0.68,0,1.37,0.11,2.58,0.22c-2.05,6.67-4.03,13.15-6.03,19.62c-10.42,33.74-20.82,67.49-31.29,101.21
			c-9.55,30.78-19.18,61.53-28.76,92.31c-5.96,19.15-11.86,38.32-17.82,57.47c-1.49,4.78-1.55,4.77-6.68,4.77
			c-18.39,0-36.77,0-55.16,0c-6.8,0-7.29-0.28-8.96-6.44c-3.61-13.33-6.89-26.76-10.79-40c-4.09-13.88-7.98-27.82-11.87-41.75
			c-3.76-13.46-7.33-27-11.11-40.46c-3.91-13.92-7.56-27.91-11.84-41.74c-1.56-5.04-2.91-10.22-4.16-15.39
			c-0.28-1.16,0.05-2.4-1.8-2.46c-1.76-0.06-2.38,0.74-2.81,2.31c-1.63,5.95-3.45,11.84-5.1,17.78c-5.48,19.66-10.92,39.33-16.37,59
			c-6.33,22.79-12.67,45.58-18.98,68.37c-3.2,11.55-6.33,23.12-9.5,34.68c-0.27,1-0.64,1.97-0.94,2.95
			c-0.68,2.23-1.95,3.15-4.5,3.13c-19.95-0.12-39.89-0.12-59.84-0.01c-2.89,0.02-3.86-0.91-4.68-3.77
			c-2.87-9.94-6.34-19.71-9.43-29.59c-4.68-14.98-9.2-30.02-13.86-45c-5.15-16.55-10.42-33.07-15.6-49.62
			c-5.22-16.69-10.38-33.41-15.61-50.1c-3.68-11.76-7.47-23.5-11.16-35.26c-4.65-14.83-9.27-29.66-13.87-44.5
			C986.2,2049.54,984.52,2043.78,982.6,2037.35z"/>
		<path class="st6" d="M893.52,2256.7c0.68,5.35,0.26,10.72,0.29,16.08c0.08,11.44,0.03,22.88,0.02,34.32
			c-0.01,5.51,0.61,5.23-5.43,5.23c-72.49,0-144.97,0-217.46,0c-1.37,0-2.74,0-4.4,0c0.98-7.94,0.65-15.63,0.29-23.29
			c-0.42-8.86,0.15-17.68,1.6-26.35c0.64-3.82,2.6-7.6,4.8-11.05c3.52-5.53,8.04-10.25,12.17-15.29
			c8.62-10.52,17.41-20.91,26.04-31.42c8.8-10.73,17.78-21.34,26.14-32.41c7.66-10.14,15.76-19.93,23.45-30.04
			c7.48-9.84,15.51-19.27,23.16-28.98c4.03-5.11,7.88-10.37,11.55-15.74c0.76-1.12,2.34-2.4,1.01-4.58
			c-1.27-2.07-2.9-1.54-4.49-1.55c-36.76-0.03-73.53-0.03-110.29-0.03c-3.82,0-7.63-0.05-11.44,0.02c-1.85,0.04-2.98-0.43-2.95-2.55
			c0.24-16.96-0.56-33.93,0.44-50.89c0,0-0.04,0.02-0.04,0.02c1.57-1.12,3.36-0.61,5.05-0.61c71.11-0.03,142.23-0.02,213.34-0.02
			c0.69,0,1.39,0.06,2.08-0.01c2.34-0.24,3.41,0.46,3.39,3.13c-0.1,9.88,0.25,19.76,0.05,29.63c-0.29,14.49-5.42,27-15.06,38.03
			c-11.11,12.72-21.94,25.7-32.41,38.97c-10.35,13.12-20.97,26.04-31.37,39.13c-9.64,12.14-19.11,24.42-28.73,36.57
			c-6.64,8.38-13.54,16.55-19.68,25.32c-1.63,2.33-3.43,4.6-4.67,7.7c2.2,0,4.06,0,5.92,0c40.59,0,81.17-0.01,121.76,0.02
			c1.89,0,3.82-0.33,5.67,0.37c0,0-0.03,0.23-0.03,0.23L893.52,2256.7z"/>
		<path class="st5" d="M2458.85,2156.07c13.21,0,25.68,0.04,38.15-0.01c10.74-0.05,21.52,0.65,32.21-0.84
			c9.69-1.35,17.68-6.47,22.84-14.25c10.63-16.03,5.06-33.82-9.23-42.67c-4.9-3.03-10.59-4.22-16.43-4.61
			c-18.37-1.23-36.74-0.66-55.11-0.21c-4.16,0.1-8.32,0.17-12.48,0.13c-2.04-0.02-2.81,0.85-2.71,2.8c0.07,1.38,0.01,2.77,0.01,4.16
			c0,67.95,0,135.91-0.01,203.86c0,7.22,0.66,6.44-6.34,6.45c-18.73,0.02-37.46,0.01-56.2,0.01c-1.21,0-2.43-0.03-3.64-0.01
			c-1.45,0.02-2.29-0.59-2.29-2.12c0-1.21-0.02-2.43-0.02-3.64c0-87.37,0-174.74,0-262.1c0-5.37,0-5.45,5.52-6.13
			c2.92-0.36,5.87-0.53,8.81-0.54c43.36-0.06,86.72-0.04,130.08-0.13c16.65-0.04,32.65,3.01,47.67,10.2
			c16.33,7.81,29.18,19.57,37.89,35.57c8.12,14.9,11.84,30.89,10.49,47.8c-1.95,24.52-11.6,45.58-30.22,61.93
			c-7.82,6.88-17.24,11.72-27.03,15.1c-8.85,3.05-18.21,4.53-27.57,5.71c-5.23,0.66-10.42,0.92-15.66,0.93
			c-5.2,0.01-10.4,0.01-15.6-0.03c-5.38-0.04-10.75-0.19-16.13-0.15c-1.88,0.02-2.67-0.94-3.55-2.38
			c-3.45-5.66-7.1-11.19-10.56-16.84c-4-6.51-7.87-13.1-11.81-19.64C2466.42,2168.57,2462.89,2162.76,2458.85,2156.07z"/>
		<path class="st5" d="M1741.86,2312.54c-1.35,0.76-2.92,0.4-4.41,0.4c-22.89,0.03-45.78,0.02-68.67,0.02
			c-4.89,0-4.87-0.02-6.69-4.73c-4.58-11.88-9.2-23.74-13.75-35.63c-3.42-8.92-6.88-17.83-10.14-26.81
			c-15.37-42.45-32.23-84.33-48.11-126.59c-0.3-0.81-0.55-1.67-1.01-2.39c-1.18-1.84-3.52-1.82-4.57,0.09
			c-0.66,1.2-1.02,2.57-1.52,3.86c-14.84,38.62-29.69,77.25-44.53,115.87c-9.17,23.87-18.34,47.74-27.51,71.61
			c-1.84,4.79-1.85,4.8-7.03,4.8c-22.72,0-45.43,0.01-68.15-0.02c-1.53,0-3.11,0.34-4.78-0.43c-0.14-2.77,1.2-5.04,2.27-7.54
			c3.63-8.51,6.84-17.19,10.8-25.57c2.29-4.87,3.74-10.14,6.13-14.95c2.7-5.44,4.53-11.22,7.13-16.71
			c2.36-4.99,4.03-10.37,6.38-15.4c3.71-7.92,6.51-16.22,10.35-24.1c2.43-4.99,3.98-10.4,6.3-15.45c3.66-7.95,6.5-16.23,10.35-24.11
			c2.44-4.99,3.98-10.4,6.3-15.45c3.65-7.95,6.46-16.25,10.31-24.14c2.36-4.82,3.85-10.07,6.23-14.94
			c2.8-5.74,4.71-11.86,7.45-17.65c2.22-4.71,3.95-9.66,6.07-14.45c3.67-8.3,6.84-16.82,10.65-25.07c2.26-4.89,4.14-9.96,6.08-15
			c1.72-4.46,1.72-4.62,6.16-4.62c24.45-0.03,48.9,0.05,73.35-0.09c2.92-0.02,4.2,0.97,5.26,3.55
			c7.57,18.22,15.32,36.36,22.94,54.55c6.82,16.29,13.52,32.63,20.33,48.92c12.51,29.92,25.05,59.83,37.62,89.73
			c10.58,25.15,21.22,50.27,31.82,75.41C1741.63,2310.42,1742.43,2311.28,1741.86,2312.54z"/>
		<path class="st5" d="M1879.95,2037.6c37.46,0,74.92,0,112.38,0c1.21,0,2.44,0.09,3.64-0.02c2.45-0.23,3.56,0.74,3.31,3.25
			c-0.1,1.03-0.02,2.08-0.02,3.12c0,13.69,0.03,27.39-0.01,41.08c-0.02,7.39,0.89,6.5-6.76,6.51c-23.24,0.03-46.48-0.01-69.72,0.02
			c-7.22,0.01-6.44-0.83-6.44,6.31c-0.02,69.5,0,139.01-0.02,208.51c0,7.22,0.77,6.42-6.34,6.43c-19.08,0.03-38.15,0.01-57.23,0.01
			c-1.21,0-2.43-0.06-3.64,0c-2.03,0.1-2.81-0.86-2.71-2.82c0.08-1.38,0.01-2.77,0.01-4.16c0-69.16,0.01-138.32-0.01-207.47
			c0-7.45,0.86-6.53-6.74-6.54c-24.11-0.03-48.21-0.01-72.32-0.01c-1.21,0-2.44-0.1-3.64,0.02c-2.53,0.25-3.51-0.89-3.23-3.32
			c0.06-0.51,0.01-1.04,0.01-1.56c0-14.91-0.01-29.81,0.01-44.72c0.01-4.58,0.05-4.59,4.49-4.63c2.6-0.03,5.2,0,7.8,0
			C1808.49,2037.6,1844.22,2037.6,1879.95,2037.6z"/>
		<path class="st6" d="M369.58,2312.12c-0.62-1.68-0.34-3.43-0.34-5.15c-0.02-51.14-0.01-102.28-0.01-153.42c0-0.52,0-1.04,0-1.56
			c-0.02-4.74-0.18-4.46,4.59-4.46c26.54,0.05,53.07,0.12,79.61,0.14c39.72,0.02,79.44,0,119.16,0.01c6.55,0,5.85-0.59,5.86,5.83
			c0.02,14.39,0.02,28.78-0.01,43.16c0,1.72-0.2,3.44-0.3,5.16c-32.23,0-64.47,0-96.7-0.01c-16.46,0-32.93-0.03-49.39,0.04
			c-1.76,0.01-3.87-0.9-5.21,1.2c0,16.62-0.02,33.24-0.01,49.86c0,4.77,0.04,4.81,4.81,4.81c46.6,0.01,93.19-0.01,139.79,0.02
			c7.42,0,6.69-0.98,6.71,6.58c0.03,14.89,0.01,29.78,0,44.67c0,1.03,0.09,2.09-0.53,3.01c-2.43,0.01-4.85,0.04-7.28,0.04
			C503.41,2312.1,436.5,2312.11,369.58,2312.12z"/>
		<path class="st6" d="M2194.39,2037.35c32.44,0,64.88,0,97.32,0c1.04,0,2.08,0.01,3.12,0c4.71-0.03,4.54-0.18,4.53,4.55
			c-0.01,14.39-0.01,28.78,0,43.17c0,5.92,0.23,5.34-5.33,5.34c-53.78,0.01-107.56,0-161.33,0c-13.18,0-26.37,0.02-39.55-0.01
			c-3.95-0.01-4.03-0.08-4.03-4.04c-0.03-14.74-0.02-29.47-0.01-44.21c0.01-4.76,0.04-4.8,4.84-4.8
			c32.61-0.01,65.23-0.01,97.84-0.01C2192.65,2037.35,2193.52,2037.35,2194.39,2037.35z"/>
		<path class="st5" d="M474.01,2037.6c32.61,0,65.22,0,97.84,0c1.21,0,2.43,0.08,3.64-0.01c2.1-0.15,2.77,0.95,2.68,2.83
			c-0.02,0.52,0,1.04,0,1.56c0,14.74,0.02,29.47-0.01,44.21c-0.01,4.43-0.06,4.47-4.65,4.47c-33.48,0.01-66.96,0.01-100.44,0.01
			c-32.27,0-64.53,0-96.8,0c-1.21,0-2.44-0.13-3.64,0.02c-2.85,0.36-3.46-1.02-3.45-3.6c0.09-14.91,0.03-29.82,0.05-44.73
			c0.01-4.72,0.04-4.76,4.86-4.76C407.4,2037.59,440.7,2037.6,474.01,2037.6z"/>
		<path class="st5" d="M935.19,2465.49c-0.23,4.21-0.24,8.04-0.69,11.8c-1.36,11.21-2.22,22.33,4.5,32.94c-14.06,0-27.34,0-40.75,0
			c-0.21-1.21,0.93-1.9,1.69-2.55c3.68-3.18,4.62-7.59,4.66-11.92c0.21-20.78,0.19-41.57,0.03-62.36
			c-0.04-5.73-2.5-10.52-8.01-13.27c1.14-2.49,3.19-2.26,4.96-2.22c19.23,0.38,38.47-0.18,57.69,0.96
			c3.76,0.22,7.48,0.43,11.24,1.31c10.45,2.45,17.31,8.83,19.73,18.92c1.78,7.41-0.5,14.44-7.45,19.44
			c-4.27,3.07-9.11,5.34-14.43,6.95c1.39,3.78,4.13,6.71,6.31,9.92c2.87,4.23,4.77,8.77,5.57,13.74
			c1.29,8.06,4.67,14.65,12.17,18.58c0.84,0.44,1.51,0.97,1.36,1.94c-0.22,1.42-1.46,1.26-2.44,1.25
			c-9.88-0.1-19.75,0.22-29.63-0.19c-3.06-0.13-4.77-1.58-5.98-4.01c-3.09-6.2-5.47-12.71-7.39-19.32
			c-1.27-4.37-3.05-8.53-4.56-12.78C942.35,2470.68,939.01,2467.96,935.19,2465.49z M939.52,2425.62c-2.14,0-3.36,0.07-4.56-0.02
			c-1.72-0.12-2.63,0.48-2.48,2.33c0.56,6.88,0.63,13.85,1.77,20.63c1.38,8.14,10.26,12.74,17.99,9.97
			c2.41-0.86,4.27-2.54,4.98-4.96c1.37-4.62,2.27-9.34,1.7-14.21c-0.84-7.18-5.41-11.9-12.6-12.96
			C943.77,2426.04,941.18,2425.81,939.52,2425.62z"/>
		<path class="st5" d="M1576.21,2509.53c-3.1,0.99-5.35,0.61-7.55,0.62c-9.89,0.05-19.77,0.03-29.66,0c-1.16,0-2.64,0.49-3.37-0.67
			c-0.91-1.44,0.78-2.02,1.44-2.92c2.67-3.65,4.56-7.41,4.37-12.24c-0.34-8.65-0.12-17.33-0.17-25.99
			c-0.03-4.52-0.07-4.58-4.25-3.95c-5.48,0.82-10.98,1.61-16.42,2.67c-5.95,1.16-8.08,3.71-8.55,9.73c-0.28,3.63-0.56,7.26-0.6,10.9
			c-0.12,12.16-0.04,12.32,5.43,22.43c-13.78,0-27.36,0-41.07,0c-0.23-1.18,1.11-1.68,1.79-2.47c3.73-4.35,5.24-9.31,5.02-15.04
			c-0.27-6.92-0.32-13.86-0.17-20.79c0.27-12.31-0.04-24.61-0.25-36.91c-0.08-4.84-2.44-9.08-3.64-13.62
			c-0.22-0.84-0.61-1.57-0.17-2.68c12.85,0,25.82,0,38.88,0c0.28,0.31,0.33,0.87-0.04,1.23c-4.6,4.36-5.94,9.97-6.01,15.98
			c-0.08,6.24,0.12,12.48,0.06,18.72c-0.02,1.91,0.75,2.46,2.47,2.21c7.37-1.09,14.77-2,22.09-3.35c3.85-0.71,5.1-2.5,5.27-6.62
			c0.21-5.02,0.13-10.05,0.09-15.07c-0.03-3.22-1.82-5.82-3.41-8.41c-0.81-1.32-1.5-2.64-1.99-4.09c3.77-1.03,31.78-1.33,40.03-0.44
			c0.03,0.16,0.14,0.42,0.09,0.47c-5.79,4.65-6.23,10.99-6.13,17.8c0.26,18.02,0.17,36.05,0.22,54.08c0,1.56-0.02,3.12,0.01,4.68
			C1570.11,2500.93,1571.19,2505.71,1576.21,2509.53z"/>
		<path class="st5" d="M1249.89,2463.13c-3.04,16.65-3.05,31.89,4.33,46.72c-13.45,0-26.52,0-39.85,0c0.32-3.36,3.13-5.03,4.01-7.84
			c0.68-2.15,1.38-4.2,1.37-6.41c-0.02-17.85-0.25-35.7-0.05-53.55c0.07-6.45-1.95-12.35-3.38-18.42c-0.22-0.95-0.11-2-0.63-2.91
			c-1.2-2.14,0.13-2.75,1.91-2.98c0.68-0.09,1.39-0.05,2.08-0.04c15.95,0.2,31.9,0.35,47.85,0.64c4.5,0.08,9.05,0.25,13.48,0.97
			c9.46,1.54,17.12,6.48,22.65,14.17c4.59,6.38,3.23,14.93-2.58,21.42c-3.35,3.74-7.31,6.66-11.95,8.62
			c-1.41,0.6-2.84,1.14-4.17,1.67c0,0.56-0.11,0.93,0.02,1.19c5.12,9.94,9.55,20.16,13.28,30.72c1.79,5.05,5.41,9.09,9.2,12.9
			c-0.96,1.48-2.29,0.84-3.36,0.84c-9.36,0.03-18.73,0-28.09-0.06c-4.53-0.03-4.3-0.16-6.2-4.41c-3.78-8.47-6.04-17.45-9.17-26.13
			C1258.44,2474.13,1255.46,2468.52,1249.89,2463.13z M1246.58,2425.9c2.26,6.43,2.07,12.3,1.93,18.17
			c-0.03,1.21,0.02,2.43,0.07,3.64c0.17,3.98,2.17,6.85,5.48,8.89c3.05,1.89,6.4,2.57,9.95,2.41c4.9-0.21,7.74-2.38,8.95-7.12
			c1.3-5.1,1.37-10.33,0.65-15.49c-0.81-5.8-3.88-8.68-9.75-10C1258.36,2425.18,1252.85,2425.58,1246.58,2425.9z"/>
		<path class="st5" d="M1846.23,2510.87c3.94-11.13,5.64-21.9,5.29-33.07c-0.35-11.25-0.31-22.53-0.1-33.79
			c0.13-6.72-1.11-13.16-3.31-19.37c-0.72-2.04,0.66-4.72-3.05-6.39c17.61-0.26,34.05-1.95,50.48-0.03
			c10.76,1.26,20.98,4.21,28.87,12.13c11.12,11.18,14.62,25.02,13.01,40.35c-1.36,13.05-7.56,23.5-17.72,31.63
			c-7.1,5.68-15.49,8.24-24.38,8.55c-10.56,0.36-21.14,0.02-31.72-0.01C1858.06,2510.86,1852.53,2510.87,1846.23,2510.87z
			 M1878.97,2426.95c0.66,3.68,1.06,6.76,1.06,9.88c-0.03,18.2-0.02,36.4,0,54.59c0,2.24-0.22,4.5,0.31,6.73
			c0.6,2.5,2.17,3.82,4.67,4.21c9.53,1.5,17.62-4.75,18.64-14.41c1.38-13.13,1.66-26.28,1.02-39.46c-0.21-4.34-0.8-8.64-2.26-12.75
			c-1.55-4.38-4.56-7.23-9.18-8.37C1888.62,2426.25,1884.02,2426.33,1878.97,2426.95z"/>
		<path class="st6" d="M2552.64,2313.07c-4.48-7.4-8.95-14.8-13.45-22.19c-4.23-6.95-8.62-13.82-12.72-20.85
			c-4.69-8.05-10.26-15.58-14.68-24.65c1.63,0,2.9,0,4.18,0c22.88,0,45.76,0.09,68.64-0.09c3.44-0.03,5.2,1.17,6.93,3.97
			c10.26,16.65,20.79,33.13,31.04,49.78c2.85,4.63,6.44,8.86,8.25,14.12C2604.76,2313.13,2578.7,2313.1,2552.64,2313.07z"/>
		<path class="st5" d="M850.34,2418.5c14.06,0,27.65,0,41.15,0c0.63,1.98-1.06,1.66-1.69,2.24c-3.87,3.52-5.16,8.03-5.15,13.05
			c0.02,14.9-0.68,29.84,0.3,44.67c0.81,12.27-10.71,26.01-19.89,29.37c-12.07,4.42-24.39,5.14-37.06,3.33
			c-7.7-1.1-14.91-3.23-21.24-7.73c-6.94-4.93-9.93-11.78-9.77-20.37c0.23-12.29-0.05-24.6-0.08-36.89
			c-0.01-3.98-0.11-7.98,0.15-11.95c0.4-6.07-2.12-10.25-7.58-12.72c-0.97-0.44-1.96-0.72-2.11-1.97c3.3-1.68,17.49-2.09,42.14-1.21
			c0.57,0.76,0.06,1.28-0.47,1.67c-4.37,3.22-5.41,7.79-5.18,12.84c0.78,16.97-0.09,33.95,0.4,50.91c0.1,3.28-0.02,6.58,0.88,9.8
			c1.43,5.17,4.65,8.27,10.02,9.17c2.41,0.41,4.82,0.52,7.25,0.45c8.16-0.26,12.73-6.19,12.82-13.14c0.2-15.76,0.28-31.52,0.4-47.29
			c0.01-1.73-0.16-3.47-0.04-5.19c0.44-6.14-0.24-11.91-4.73-16.66C850.46,2420.46,850.56,2419.58,850.34,2418.5z"/>
		<path class="st5" d="M1769.33,2510.15c-7.45,0-14.02,0.01-20.6-0.02c-0.79,0-1.8,0.18-2.12-0.96c-0.22-0.79,0.32-1.24,0.81-1.74
			c4.25-4.33,5.36-9.49,5.26-15.51c-0.31-18.71-0.25-37.42-0.05-56.13c0.05-4.58-1.37-8.28-3.94-11.86
			c-1.48-2.06-4.35-1.94-5.76-3.9c0.29-1.62,1.47-1.67,2.65-1.81c4.31-0.52,8.62-0.98,12.96-0.8c4.51,0.19,8.99,0.22,13.49-0.23
			c6.98-0.7,11.93,2.25,15.06,8.56c5.79,11.69,11.62,23.36,17.62,34.94c2.57,4.96,4.93,10.09,9.25,15.63
			c0-9.04,0.03-16.88-0.01-24.73c-0.03-5.89-0.37-11.78-0.2-17.66c0.13-4.57-1.44-8.34-4.17-11.8c-0.85-1.08-1.92-2.01-1.66-3.62
			c7.58,0,15.14,0,22.73,0c0.05,0.76,0.25,1.33,0.09,1.78c-3.52,9.78-3.75,19.99-3.78,30.19c-0.05,13.34-0.13,26.68,0.24,40.02
			c0.16,5.6,0.98,11,2.98,16.19c0.51,1.32,0.54,2.59,1.08,4.51c-10.27,0-20.11,0.15-29.94-0.08c-3.41-0.08-5.27-2.99-6.83-5.7
			c-1.44-2.51-2.83-5.08-3.91-7.75c-6.2-15.35-14.88-29.49-21.65-44.57c-1.03-2.29-2.84-4.23-4.23-6.24
			c-1.16,0.18-1.09,0.91-1.09,1.56c0.03,14.55-0.39,29.09,0.1,43.65c0.17,5.14,1.07,9.87,3.78,14.24
			C1768.11,2507.32,1768.52,2508.45,1769.33,2510.15z"/>
		<path class="st5" d="M734.78,2510.26c-14.44,0-28.23,0-42.54,0c5.82-4.64,7.7-10.54,7.63-17.52c-0.19-19.39-0.13-38.79,0-58.18
			c0.02-3.17-0.78-6.07-1.7-8.95c-0.61-1.9-1.49-3.95-3.86-4.45c-0.99-0.21-1.8-0.8-1.62-1.65c0.16-0.72,1.06-1.36,1.98-1.48
			c1.2-0.16,2.41-0.34,3.61-0.32c20.25,0.49,40.54-0.55,60.75,1.48c6.63,0.66,12.91,2.61,18.07,6.82
			c15.17,12.35,8.98,30.43-0.77,38.08c-5.85,4.59-12.62,7.23-20.07,8.23c-7.71,1.04-15.37,2.53-23.07,3.64
			c-2.47,0.36-3.41,1.49-3.96,3.88C726.94,2489.76,728.66,2500.42,734.78,2510.26z M729.46,2446.23c0,3.46,0,6.92,0,10.38
			c0,11.78,0.31,11.97,12.13,8.89c4.03-1.05,7.41-2.93,9.42-6.69c3.2-5.97,4.45-12.37,3.37-19.06c-1.51-9.3-6.94-13.83-16.42-13.97
			c-1.21-0.02-2.42,0.1-3.63,0.1c-4.95,0.01-4.9-0.18-4.88,4.8C729.48,2435.86,729.46,2441.05,729.46,2446.23z"/>
		<path class="st5" d="M2138.55,2509.41c-1.1-1.47-0.66-3.08-0.67-4.59c-0.05-7.45-0.08-14.91,0.02-22.36
			c0.02-1.58-1.07-4,1.02-4.59c2.37-0.68,2.9,2.14,3.69,3.58c2.69,4.93,6.14,9.2,10.34,12.83c9.08,7.86,19.42,10.56,31.22,7.42
			c4.06-1.08,5.91-3.83,6.7-7.46c0.94-4.32-1.63-7.34-4.91-9.35c-4.05-2.49-8.37-4.62-12.76-6.45c-8.53-3.55-16.82-7.58-24.64-12.46
			c-5.83-3.63-9.1-9.05-9.48-16.07c-0.21-3.98-0.3-7.95-0.22-11.95c0.18-8.61,5.49-13.33,12.59-16.32
			c7.18-3.02,14.89-4.08,22.67-4.21c7.28-0.12,14.57-0.05,21.85-0.01c1.55,0.01,3.12,0.15,4.64,0.44c3.1,0.59,5.15,2.16,6.05,5.51
			c0.91,3.36,1.37,6.75,1.96,10.15c0.44,2.56-0.66,3.89-3.19,4.34c-3.44,0.61-6.36-0.05-8.92-2.62c-6.85-6.86-15.34-9.22-24.81-8.67
			c-5.02,0.29-7.54,1.86-8.6,5.3c-1.55,5.02-0.19,9.74,3.73,12.47c2.82,1.97,6.03,3.21,9.12,4.69c9.48,4.53,18.86,9.29,28.27,13.99
			c7.42,3.71,10.46,10.44,11.38,18.05c1.44,11.85-3.18,20.75-13.88,26.34c-5.89,3.08-12.04,3.62-18.26,4.23
			c-5.17,0.51-10.37,0.09-15.57-0.45c-8.27-0.86-16.58-1.4-24.88-2C2141.54,2509.09,2140.03,2509.33,2138.55,2509.41z"/>
		<path class="st5" d="M1392.02,2509.43c-0.5-9.07-1-18.02-1.49-26.98c-0.05-0.86-0.08-1.73-0.07-2.6c0.02-0.88,0.12-1.76,1.14-2.08
			c0.9-0.28,1.69-0.08,2.28,0.72c1.22,1.67,2.52,3.29,3.65,5.02c3.64,5.54,7.92,10.45,13.51,14.1c7.09,4.64,14.98,6.23,23.23,5.19
			c7.43-0.94,11.13-5.93,10.39-10.91c-0.57-3.84-3.43-6.09-6.25-8.28c-2.44-1.89-5.55-2.35-8.23-3.68
			c-9.71-4.81-19.65-9.19-28.88-14.92c-5.3-3.29-7.83-8.36-8.58-14.41c-0.53-4.31-0.62-8.64-0.2-12.97
			c0.73-7.48,4.31-12.47,11.65-15.24c8.55-3.22,17.23-4.79,26.3-4.69c8.5,0.09,16.99,0.19,25.49,0.12c2.3-0.02,3.61,0.75,4.05,2.97
			c0.79,4.06,1.44,8.14,2.38,12.16c0.64,2.73-0.75,3.96-2.92,4.61c-3.12,0.93-6.33,0.82-8.65-1.69c-3.62-3.92-8.29-6.25-12.97-8.19
			c-6.38-2.64-13.03-1.86-18.83,1.95c-4.11,2.7-4.27,8.18-0.85,11.77c3.03,3.17,7.02,4.93,10.74,7.08
			c8.21,4.74,17.04,8.21,25.6,12.21c15.12,7.08,18.15,24.77,11.75,36.97c-3.01,5.74-8.26,8.69-13.89,11.02
			c-9.18,3.81-18.85,3.61-28.47,2.65c-9.15-0.91-18.3-1.62-27.47-2.16C1395.1,2509.11,1393.76,2509.32,1392.02,2509.43z"/>
		<path class="st5" d="M1737.25,2510.3c-15.19,0-29.19,0-43.27,0c0.18-1.42,0.46-2.85,1.58-4c2.98-3.07,2.46-6.72,1.28-10.21
			c-0.68-2.03-1.61-3.98-2.22-6.07c-1.24-4.27-1.6-4.52-5.9-4.35c-6.55,0.26-13.07,1.29-19.09,3.7c-6.6,2.64-8.3,7.26-5.71,14.77
			c0.66,1.9,1.87,3.61,2.84,5.42c-5.49,1.03-23.03,0.83-26.56-0.29c0-0.75,0.31-1.47,0.93-1.72c6.67-2.74,9-9.12,10.53-14.92
			c3.24-12.25,6.59-24.42,10.71-36.41c2.87-8.36,5.73-16.73,7.63-25.4c0.74-3.37,0.1-6.51-0.22-9.75c-0.34-3.38-0.19-3.69,3.19-3.62
			c7.44,0.15,14.89-0.42,22.34,0.45c4.78,0.56,7.66,3.17,9.19,7.25c2.05,5.46,3.79,11.06,5.38,16.68
			c5.17,18.3,10.87,36.44,16.83,54.5c0.87,2.64,2.21,5.04,4.2,7.06C1732.84,2505.37,1734.64,2507.45,1737.25,2510.3z
			 M1690.87,2475.23c-2.67-8.64-4.03-17.17-7.05-25.25c-0.6-1.61-1.28-3.22-2.16-4.69c-0.95-1.61-2.28-1.48-2.89,0.32
			c-0.94,2.77-1.65,5.62-2.42,8.44c-2.17,7.93-4.31,15.87-6.67,24.55C1677.05,2477.28,1683.86,2476.95,1690.87,2475.23z"/>
		<path class="st5" d="M2130.44,2509.81c-13.81,0-27.24,0-41.24,0c3.15-3.82,5.11-7.84,3.26-12.11c-0.95-2.19-1.26-4.5-2.16-6.67
			c-0.53-1.27-1.43-2.68-1.19-4.36c0.18-1.2-0.8-1.94-2.03-1.64c-7.64,1.86-15.69,1.46-23.16,4.21c-4,1.47-6.19,4.61-6.22,8.96
			c-0.02,2.08,0.2,4.15,0.85,6.15c0.58,1.78,1.17,3.55,1.83,5.54c-8.2,0-16.22,0-24.82,0c1.47-2.91,3.74-4.56,5.26-6.73
			c5.39-7.68,7.19-16.68,10.01-25.28c4.72-14.42,9.45-28.82,13.51-43.46c1.08-3.91,1.48-7.01-0.03-10.57
			c-0.26-0.61-0.7-1.21-0.8-1.8c-0.68-4.12-0.25-4.58,4.08-4.6c5.54-0.02,11.09-0.05,16.63,0.02c2.07,0.03,4.14,0.31,6.2,0.52
			c5.2,0.55,8.34,3.37,10,8.35c3.59,10.73,6.23,21.71,9.25,32.59c3.47,12.54,7.13,25.02,11.84,37.16c1.5,3.88,3.49,7.44,6.62,10.28
			C2128.99,2507.15,2129.95,2507.93,2130.44,2509.81z M2086.52,2475.24c-3.98-10.98-7.67-21.16-11.36-31.34
			c-0.26,0-0.53,0.01-0.79,0.01c-3.07,11.36-6.14,22.71-9.39,34.75C2072.52,2477.47,2079.12,2476.42,2086.52,2475.24z"/>
		<path class="st5" d="M1035.58,2497.38c6.06,0.28,11.76,0.6,17.46,0.8c5.69,0.21,10.27-3.14,15.84-5.52
			c-0.86,5.61-1.6,10.62-2.41,15.62c-0.18,1.14-1,1.77-2.19,1.83c-0.69,0.04-1.39,0.05-2.08,0.05c-19.08,0-38.15,0-57.23-0.01
			c-0.85,0-1.69-0.18-2.42-0.26c-0.76-1.4,0.22-2.02,0.86-2.81c3.04-3.71,4.42-7.83,4.28-12.76c-0.3-10.91-0.14-21.83-0.17-32.75
			c0-1.04,0.11-2.09-0.02-3.12c-0.35-2.86,1.11-3.55,3.66-3.48c2.19,0.06,4.46,0.45,6.85-0.54c-0.93-3.9-3.19-7.15-4.49-10.79
			c-3.43-9.61-8.23-18.45-17.66-24.48c1.77-0.91,3.12-0.69,4.4-0.69c20.29-0.02,40.58-0.02,60.87-0.01c4.79,0,4.75,0.05,5.61,4.69
			c0.66,3.54,1.54,7.05,2.15,10.6c0.42,2.42-0.11,2.86-2.52,2.02c-3.01-1.05-6.01-2.21-8.85-3.66c-1.27-0.65-2.55-1.44-3.85-1.22
			c-4.38,0.75-8.78-0.67-13.56,0.25c3.82,10.6,8.92,20.49,13.41,31.27c-3.68,0.78-7.07,0.28-10.4,0.41c-1.56,0.06-3.12,0.07-4.68,0
			c-1.86-0.08-2.91,0.45-2.9,2.59C1035.61,2475.98,1035.58,2486.53,1035.58,2497.38z"/>
		<path class="st5" d="M1311.73,2418.92c1.27-0.66,2.66-0.29,3.98-0.29c19.95-0.03,39.89-0.04,59.84-0.01
			c6.28,0.01,5.05-0.62,6.47,5.48c0.85,3.65,1.37,7.38,2.13,11.57c-5.28-1.03-9.04-4.95-14.11-4.89c-4.82,0.05-9.65,0.01-15.4,0.01
			c4.43,11.19,9.73,21.11,14.49,32.08c-4.36,0-7.95,0.01-11.53,0c-6.41-0.01-7.67,1.13-7.75,7.46c-0.08,6.24-0.13,12.48,0.04,18.72
			c0.16,5.68,2.63,8.12,8.2,8.52c3.11,0.22,6.23,0.41,9.34,0.54c4.72,0.2,8.7-1.51,12.04-4.79c0.62-0.61,1.16-1.33,1.87-1.8
			c1.41-0.94,3.06-0.14,2.79,1.48c-0.89,5.25-2.06,10.45-3.1,15.67c-0.21,1.05-0.95,1.37-1.85,1.44c-0.86,0.07-1.73,0.05-2.6,0.05
			c-18.39,0-36.77,0.01-55.16-0.01c-1.18,0-2.44,0.27-3.66-0.76c1.5-6.46,4.87-12.54,4.75-19.51c-0.13-7.8,0.06-15.6,0.1-23.4
			c0.01-2.6,0.16-5.22-0.1-7.79c-0.29-2.88,1.1-3.62,3.59-3.68c2.89-0.07,5.77-0.33,9.03-0.54c-0.92-3.08-3.55-4.45-4.75-6.96
			c-2.12-4.44-3.87-9.05-6.04-13.46c-2.38-4.87-5.64-8.96-10.17-12C1313.04,2421.3,1311.92,2420.51,1311.73,2418.92z"/>
		<path class="st5" d="M2038.05,2454.6c-1.26,5.05-2.23,9.4-3.47,13.66c-0.55,1.9-1.07,3.69-4.25,2.29
			c-5.46-2.4-11.28-3.96-17.61-6.09c1.15,10.72-0.65,21.19,0.28,31.69c0.43,4.88,2.56,9.21,5.1,13.72c-13.46,0-26.37,0-39.16,0
			c-0.39-0.99-0.36-1.69,0.27-2.14c4.12-2.93,4.7-7.6,4.75-11.86c0.25-20.96,0.19-41.93,0.01-62.9c-0.04-5.07-1.41-9.86-7.19-11.63
			c-0.91-0.28-1.48-0.83-2.05-2.08c3.5-1.66,7.24-1.81,10.95-1.83c11.79-0.06,23.58-0.01,35.37-0.03
			c5.03-0.01,10.06-0.15,15.08-0.08c4.28,0.06,6.58,1.77,7.47,5.75c0.88,3.94,1.39,7.95,2.06,11.94c-2.22,0.66-3.57-0.71-4.91-1.43
			c-3.71-1.99-7.54-3.05-11.74-2.92c-4.33,0.13-8.67,0.23-13,0.26c-1.96,0.01-2.81,0.85-2.8,2.81c0.04,6.06,0.06,12.13,0,18.2
			c-0.02,2.06,0.95,2.69,2.87,2.67c5.2-0.06,10.4-0.02,15.6-0.02C2033.6,2454.6,2035.49,2454.6,2038.05,2454.6z"/>
		<path class="st5" d="M1198.88,2455.33c-0.55,4.72-1.83,9.35-3.29,13.89c-1.01,3.12-3.31,3.84-5.73,1.41
			c-4.62-4.64-10.29-5.01-16.04-5.37c-1.01,0.92-0.84,2.01-0.84,3.02c0,9.01,0.17,18.03-0.02,27.04c-0.1,4.81,0.94,8.88,4.92,11.9
			c0.62,0.47,1.41,1.05,1.12,2.74c-12.88,0.41-25.87,0.17-38.59,0.16c-1.01-2.07,0.65-2.03,1.15-2.75c2.33-3.39,4.4-6.66,4.33-11.2
			c-0.28-19.41-0.4-38.83-0.19-58.24c0.07-7.04-2.14-12.68-7.26-17.34c-0.5-0.46-0.92-1-1.64-1.79c2.65-1.34,5.31-1.34,7.91-1.35
			c17.17-0.08,34.34-0.13,51.51-0.12c6.74,0,8.42,1.68,9.09,8.49c0.17,1.72,0.57,3.42,0.77,5.13c0.18,1.52,0.23,3.06,0.32,4.45
			c-1.09,0.69-2.07,0.47-2.65,0.05c-5.99-4.36-12.83-4.95-19.89-4.68c-2.6,0.1-5.2,0.21-7.8,0.17c-1.95-0.03-2.84,0.72-2.83,2.73
			c0.05,6.07,0.08,12.14-0.01,18.2c-0.04,2.41,1.18,2.86,3.23,2.84c5.72-0.07,11.45-0.06,17.17,0
			C1195.32,2454.72,1197.09,2454.26,1198.88,2455.33z"/>
		<path class="st5" d="M2299.91,2438.61c-15.23-9.37-18.12-8.29-30.02-7.15c2.09,19.82,0.96,39.7,0.91,59.56
			c-0.02,7.37,2.4,13.44,8.45,18.07c-3.99,1.14-30.42,1.47-40.08,0.58c-1.13-2.09,0.1-3.91,1.05-5.6c2.21-3.96,3.18-8.09,3.28-12.65
			c0.4-18.54,0.17-37.07,0.21-55.61c0-1.54-0.22-3.09-0.35-4.84c-9.41-0.8-17.98,3.51-27.53,4.09c-0.31-4.96,1.56-9.39,1.47-13.99
			c-0.03-1.35,1.4-2.73,3.13-2.98c1.88-0.27,3.77-0.64,5.66-0.64c20.8,0,41.6,0.08,62.4,0.1c4.92,0,8.11,0.3,9.57,7.75
			C2298.91,2429.6,2299.9,2433.93,2299.91,2438.61z"/>
		<path class="st6" d="M1633.66,2247.01c-15.61,22.47-31.22,44.94-46.62,67.09c-2.01-0.13-2.48-1.23-3.03-2
			c-6.44-9.23-12.78-18.54-19.22-27.77c-6.24-8.95-12.54-17.86-18.9-26.73c-1.89-2.64-3.41-5.51-5.57-7.99
			c-1.8-2.06-1.09-3.25,1.73-3.44c0.69-0.05,1.39-0.01,2.08-0.01c28.41,0,56.82-0.01,85.23,0.03
			C1630.68,2246.18,1632.11,2245.7,1633.66,2247.01z"/>
		<path class="st5" d="M1594.96,2515.14c-3.67,0.73-5.88-1.39-7.46-4.22c-1.24-2.22-2.1-4.66-3.05-7.03
			c-1.63-4.09-0.39-6.57,3.75-7.98c4.13-1.41,7.4-0.06,10.28,2.89c2.72,2.78,4.3,5.79,2.36,9.72c-0.52,1.06-0.92,2.23-1.09,3.39
			C1599.32,2514.8,1597.62,2515.63,1594.96,2515.14z"/>
		<path class="st5" d="M1089.61,2515.22c-4.57-0.04-8.78-3.86-10.21-8.86c-1.23-4.3-0.58-6.75,2.27-8.63
			c2.99-1.97,7.19-1.88,10.09,0.21c4.26,3.08,5.07,5.6,3.44,10.71c-0.36,1.14-0.95,2.23-1.16,3.39
			C1093.54,2514.91,1091.76,2515.62,1089.61,2515.22z"/>
		<path class="st5" d="M2309.02,2504.29c-0.02,5.87-0.67,6.51-6.53,6.43c-0.86-0.01-1.74,0.01-2.59-0.11
			c-8.63-1.13-7.69-0.98-7.78-9.28c-0.03-2.3,1.48-3.54,3.3-3.85c2.88-0.5,5.87-0.74,8.78-0.55
			C2308.3,2497.21,2309.04,2498.58,2309.02,2504.29z"/>
		<polygon class="st5" points="893.52,2256.7 893.28,2256.65 893.31,2256.42 893.6,2256.41 		"/>
		<polygon class="st5" points="667.98,2038.2 668.01,2038.18 667.84,2038.15 		"/>
		<path class="st5" d="M2088.85,2312.12c-0.63-1.68-0.34-3.43-0.34-5.15c-0.02-51.14-0.01-102.28-0.01-153.42c0-0.52,0-1.04,0-1.56
			c-0.02-4.74-0.18-4.46,4.64-4.46c26.84,0.05,53.68,0.12,80.52,0.14c40.17,0.02,80.34,0,120.52,0.01c6.63,0,5.91-0.59,5.92,5.83
			c0.02,14.39,0.02,28.78-0.01,43.16c0,1.72-0.2,3.44-0.3,5.16c-32.6,0-65.2,0-97.81-0.01c-16.65,0-33.3-0.03-49.95,0.04
			c-1.78,0.01-3.92-0.9-5.27,1.2c0,16.62-0.02,33.24-0.01,49.86c0,4.77,0.04,4.81,4.87,4.81c47.13,0.01,94.26-0.01,141.38,0.02
			c7.5,0,6.77-0.98,6.78,6.58c0.03,14.89,0.01,29.78,0,44.67c0,1.03,0.1,2.09-0.53,3.01c-2.45,0.01-4.91,0.04-7.36,0.04
			C2224.21,2312.1,2156.53,2312.11,2088.85,2312.12z"/>
	</g>
</g>
</svg>
